<svg xmlns="http://www.w3.org/2000/svg" viewBox="0 0 256 256">
<defs>
  <linearGradient id="bg_light_final" x1="0" y1="0" x2="0" y2="1">
    <stop offset="0" stop-color="#E2E4E9"/>
    <stop offset="1" stop-color="#CBD0D8"/>
  </linearGradient>
  <linearGradient id="glass_light_final" x1="0" y1="0" x2="0" y2="1">
    <stop offset="0" stop-color="#FFFFFF" stop-opacity="0.92"/>
    <stop offset="50%" stop-color="#FFFFFF" stop-opacity="0.52"/>
    <stop offset="100%" stop-color="#FFFFFF" stop-opacity="0.25"/>
  </linearGradient>
  <mask id="cut_light_final">
    <rect width="256" height="256" fill="white"/>
    <rect x="110" y="64" width="94" height="128" rx="36" fill="black"/>
  </mask>
</defs>
<rect x="1" y="1" width="254" height="254" rx="57" fill="url(#bg_light_final)" stroke="#000000" stroke-opacity="0.10" stroke-width="2"/>
<!-- D: Highly Translucent White Glass -->
<path d="M 76 74 L 96 74 A 40 40 0 0 1 136 114 L 136 142 A 40 40 0 0 1 96 182 L 76 182 A 14 14 0 0 1 62 168 L 62 88 A 14 14 0 0 1 76 74 Z" 
      fill="url(#glass_light_final)" stroke="#FFFFFF" stroke-opacity="1.0" stroke-width="4.5" stroke-linejoin="round"
      mask="url(#cut_light_final)"/>
<!-- O: Solid Pure White with clean outline -->
<rect x="118" y="72" width="78" height="112" rx="28" fill="#FFFFFF" stroke="#000000" stroke-opacity="0.10" stroke-width="1.5"/>
</svg>